<svg version="1.2" xmlns="http://www.w3.org/2000/svg" viewBox="0 0 512 512" width="512" height="512">
	<style>
		.s0 { fill: none;stroke: #4040401C;stroke-miterlimit:100;stroke-width: 3 } 
	</style>
	<g id="Layer 1">
		<path class="s0" d="m424 331.8c0 12.5-6.7 24.1-17.5 30.3l-132 76.2c-10.8 6.3-24.2 6.3-35 0l-132-76.2c-10.8-6.3-17.5-17.8-17.5-30.3v-152.6c0-12.5 6.7-24.1 17.5-30.3l132-76.2c10.8-6.3 24.2-6.3 35 0l132 76.2c10.8 6.3 17.5 17.8 17.5 30.3zm-168-454.5v256.4c0 12.5-6.7 24.1-17.5 30.3l-256 147.6m273.5 323.1v-256.4c0-12.5 6.7-24.1 17.5-30.3l252.1-145.4m-252.1 236.4l252.1-145.4m-287.1-220.6l-256 147.6"/>
	</g>
</svg>